# xmcd
#
# Track frame offsets: 
#        190
#        12577
#        26517
#        36367
#        49095
#        61602
#        73330
#        87632
#        99625
#        112980
#        124010
#        138187
#        147937
#        162580
#        172992
#        183227
#        195042
#        204755
#        215515
#        228722
#        238880
#        251020
#        262180
#        272147
#        282155
#        291335
#        302817
#
# Disc length: 4165 seconds
#
# Revision: 2
# Processed by: cddbd v1.5.2PL0 Copyright (c) Steve Scherf et al.
# Submitted via: ExactAudioCopy v0.95b4
#
DISCID=9810431b
DTITLE=Maddox Brothers and Rose - America's Most Colorful Hillbilly Band
DTITLE=, Vol. 1
DYEAR=1976
DGENRE=Western Swing
TTITLE0=George's Playhouse Boogie
TTITLE1=Midnight Train
TTITLE2=Shimmy Shakin' Daddy
TTITLE3=Careless Driver
TTITLE4=Move It On Over
TTITLE5=Whoa Sailor
TTITLE6=Milk Cow Blues
TTITLE7=Mean and Wicked Boogie
TTITLE8=Brown Eyes
TTITLE9=Honky Tonkin'
TTITLE10=Time nor Tide
TTITLE11=I Want to Live and Love [see note]
TTITLE12=Philadelphia Lawyer
TTITLE13=Sally Let Your Bangs Hang Down
TTITLE14=When I Lay My Burdens Down
TTITLE15=Hangover Blues
TTITLE16=Water Baby Boogie
TTITLE17=Dark as the Dungeon
TTITLE18=Mule Train
TTITLE19=Oklahoma Sweetheart Sally Ann
TTITLE20=Faded Love
TTITLE21=New Step It Up and Go
TTITLE22=(Pay Me) Alimony
TTITLE23=I Wish I Was a Single Girl Again
TTITLE24=Your Love Light Never Shone
TTITLE25=Meanest Man in Town
TTITLE26=I Want to Live and Love
EXTD=CD subtitle: Their Original Recordings 1946-1951\nRoselea Arbana 
EXTD="Rose" Maddox (1926-08-15/1998-04-16): lead vocals\nCliff Maddox 
EXTD=(1912/1949): mandolin\nFred Maddox (1919/1992): lead vocals (3,6,
EXTD=8), bass\nHenry Maddox (1928/1974): mandolin (after 1949), lead g
EXTD=uitar\nDon Maddox (b.1922): lead vocal (22), fiddle\nCal Maddox (
EXTD=1915/1968): rhythm guitar, harmonica\nBud Duncan: steel guitar\nL
EXTD=ead guitar: Jimmy Winkle, Roy Nichols, or Gene Breeden\nExcept tr
EXTD=acks 21 and 26, previously re-issued on Arhoolie LPs 5016 and 5017 (1
EXTD=976).\nCD: Arhoolie Records CD 391 (1993-12-02), UPC 096297039120
EXTD=
EXTT0=
EXTT1=
EXTT2=
EXTT3=
EXTT4=
EXTT5=
EXTT6=
EXTT7=
EXTT8=
EXTT9=
EXTT10=
EXTT11=Note: This track, labeled on the CD as "New Mule Skinner Blues"
EXTT11=, is in fact a duplicate of track #27, "I Want to Live and Love
EXTT11=". "New Mule Skinner Blues" appears as track #1 of Vol.2 (Arhoo
EXTT11=lie CD 437, 1995-08-10, UPC 096297043721, freedb DISCID 9d12051
EXTT11=e), whose liner notes acknowledge the error on Vol.1.
EXTT12=
EXTT13=
EXTT14=
EXTT15=
EXTT16=
EXTT17=
EXTT18=
EXTT19=
EXTT20=
EXTT21=
EXTT22=
EXTT23=
EXTT24=
EXTT25=
EXTT26=
PLAYORDER=
